HIERARCHY
ROOT Hips
{
	OFFSET 0.000000 0.000000 0.000000 
	CHANNELS 6 Xposition Yposition Zposition Yrotation Zrotation Xrotation 
	JOINT Lumbar
	{
		OFFSET 0.000000 0.000000 0.000000 
		CHANNELS 3 Zrotation Xrotation Yrotation
		JOINT Neck
		{
			OFFSET 0.000000 0.445665 0.000000 
			CHANNELS 3 Zrotation Xrotation Yrotation
			End Site
			{
				OFFSET 0.000000 0.227535 0.000000 
			}
		}
		JOINT RightShoulder
		{
			OFFSET 0.019635 0.377685 0.194865 
			CHANNELS 3 Zrotation Xrotation Yrotation
			JOINT RightElbow
			{
				OFFSET 0.000000 -0.243375 0.000000 
				CHANNELS 2 Zrotation Yrotation
				JOINT RightWrist
				{
					OFFSET 0.000000 -0.264825 0.000000 
					CHANNELS 2 Zrotation Xrotation
					End Site
					{
						OFFSET 0.006600 -0.176220 0.000990 
					}
				}
			}
		}
		JOINT LeftShoulder
		{
			OFFSET 0.019635 0.377685 -0.194865 
			CHANNELS 3 Zrotation Xrotation Yrotation
			JOINT LeftElbow
			{
				OFFSET 0.000000 -0.243375 0.000000 
				CHANNELS 2 Zrotation Yrotation
				JOINT LeftWrist
				{
					OFFSET 0.000000 -0.264825 0.000000 
					CHANNELS 2 Zrotation Xrotation
					End Site
					{
						OFFSET 0.006600 -0.176220 -0.000990 
					}
				}
			}
		}
	}
	JOINT RightHip
	{
		OFFSET 0.052140 -0.069960 0.075570 
		CHANNELS 3 Zrotation Xrotation Yrotation
		JOINT RightKnee
		{
			OFFSET 0.000000 -0.402270 0.000000 
			CHANNELS 1 Zrotation
			JOINT RightAnkle
			{
				OFFSET 0.000000 -0.404085 0.000000 
				CHANNELS 3 Zrotation Xrotation Yrotation
				End Site
				{
					OFFSET 0.204105 -0.089430 0.008415 
				}
			}
		}
	}
	JOINT LeftHip
	{
		OFFSET 0.052140 -0.069960 -0.075570 
		CHANNELS 3 Zrotation Xrotation Yrotation
		JOINT LeftKnee
		{
			OFFSET 0.000000 -0.402270 0.000000 
			CHANNELS 1 Zrotation
			JOINT LeftAnkle
			{
				OFFSET 0.000000 -0.404085 0.000000 
				CHANNELS 3 Zrotation Xrotation Yrotation
				End Site
				{
					OFFSET 0.204105 -0.089430 -0.008415 
				}
			}
		}
	}
}
MOTION
Frames: 17
Frame Time: 0.02
0 0.95578 0 175.97032 0 -4.6059 5.71663 5.4853 -1.67782 -18.84767 2.58136 4.96564 21.44638 -71.23988 -68.47091 20.96325 74.36019 -32.76913 -2.29091 32.75122 61.55629 51.36291 15.98456 -104.8414 -30.92145 6.24581 -3.22839 4.74071 -1.95412 -7.53459 2.97306 -4.03892 -8.29071 -5.82629 6.25577 5.78205 -5.48303 7.52843 5.5297 8.55947
-0.00017 0.95575 -2e-05 175.9697 0 -4.60582 5.76577 5.49132 -1.35247 -18.94606 2.78454 4.66016 21.35877 -71.27281 -68.62231 20.89452 74.25574 -32.63179 -2.27389 32.71628 61.56742 51.62868 15.96406 -104.72202 -30.75827 6.22557 -3.24469 4.74117 -1.96341 -7.52231 2.98435 -4.05112 -8.28491 -5.82376 6.2569 5.77654 -5.50823 7.54547 5.54511 8.56155
-0.00034 0.95572 -4e-05 175.96906 0 -4.60572 5.81488 5.49723 -1.02955 -19.04442 2.98587 4.35704 21.27127 -71.30534 -68.77349 20.8267 74.15196 -32.49518 -2.2571 32.68207 61.57944 51.89112 15.94438 -104.60074 -30.5964 6.20507 -3.26099 4.74163 -1.97257 -7.51001 2.9956 -4.06326 -8.27917 -5.82133 6.25802 5.7711 -5.53321 7.56241 5.56042 8.56359
-0.00051 0.95569 -5e-05 175.96846 0 -4.60557 5.86421 5.50288 -0.71344 -19.14299 3.1818 4.06033 21.18293 -71.33664 -68.92549 20.76171 74.04985 -32.36068 -2.24107 32.65057 61.59547 52.14468 15.9271 -104.46974 -30.43848 6.1832 -3.27744 4.7421 -1.98126 -7.49749 3.00673 -4.07526 -8.27379 -5.81923 6.25915 5.76569 -5.55752 7.57914 5.57551 8.56547
-0.00067 0.95566 -7e-05 175.96775 0 -4.60571 5.91224 5.51005 -0.36154 -19.23966 3.40633 3.72958 21.09852 -71.37454 -69.07347 20.68155 73.93885 -32.21562 -2.22103 32.60487 61.59069 52.44753 15.89628 -104.38909 -30.26 6.16848 -3.29308 4.74249 -1.99238 -7.48614 3.0184 -4.08802 -8.2667 -5.81532 6.26027 5.75987 -5.58532 7.59704 5.59182 8.56819
-0.00084 0.95563 -9e-05 175.9672 0 -4.60522 5.96307 5.51392 -0.08547 -19.34078 3.57014 3.47121 21.00621 -71.39841 -69.22958 20.6337 73.84683 -32.09263 -2.20949 32.58914 61.62963 52.64431 15.8947 -104.2028 -30.12496 6.13874 -3.31041 4.74307 -1.99842 -7.47233 3.02899 -4.09916 -8.2631 -5.81525 6.2614 5.75508 -5.60574 7.61241 5.60551 8.56914
-0.00101 0.9556 -0.00015 175.96783 0 -4.60293 6.02246 5.50886 -0.02094 -19.45308 3.56478 3.41249 20.88682 -71.38257 -69.41459 20.67575 73.80678 -32.03289 -2.22201 32.65963 61.79694 52.55584 15.97173 -103.70195 -30.11209 6.06434 -3.33327 4.74422 -1.98935 -7.45091 3.03628 -4.10594 -8.27061 -5.82607 6.2625 5.75173 -5.60551 7.62122 5.61208 8.5649
-0.00118 0.95557 -0.00022 175.96853 0 -4.6 6.08458 5.50041 -0.03256 -19.57016 3.49841 3.42679 20.76077 -71.35252 -69.60632 20.75026 73.78642 -31.99495 -2.24307 32.75984 62.00688 52.35906 16.0786 -103.09798 -30.14252 5.9753 -3.35771 4.74555 -1.97534 -7.42713 3.04257 -4.11108 -8.28144 -5.84069 6.26361 5.7496 -5.59789 7.62744 5.61599 8.55894
-0.00135 0.95554 -0.00028 175.96865 0 -4.5974 6.14497 5.49341 -0.00782 -19.68593 3.46088 3.40782 20.6404 -71.32985 -69.79169 20.80967 73.75673 -31.94543 -2.25981 32.84421 62.19295 52.20637 16.1735 -102.55554 -30.15187 5.89489 -3.3809 4.74674 -1.96429 -7.40492 3.04956 -4.11688 -8.28976 -5.85342 6.26471 5.74793 -5.5938 7.63458 5.62101 8.55392
-0.00153 0.95551 -0.00034 175.97086 0 -4.59463 6.20742 5.48684 0.00971 -19.79816 3.41857 3.38933 20.50682 -71.30417 -69.99314 20.87093 73.72673 -31.9029 -2.2782 32.93825 62.39916 52.07422 16.26232 -101.95174 -30.1677 5.80603 -3.40631 4.74815 -1.95027 -7.3806 3.05548 -4.123 -8.30211 -5.86692 6.26579 5.74231 -5.58893 7.64273 5.62641 8.54814
-0.00169 0.95547 -0.00041 175.96901 0 -4.59206 6.26623 5.4785 0.02394 -19.91875 3.37179 3.38708 20.40171 -71.28026 -70.15997 20.93559 73.70447 -31.85107 -2.29542 33.01943 62.57207 51.87499 16.37011 -101.45065 -30.17962 5.73144 -3.42749 4.74919 -1.94121 -7.36012 3.06342 -4.1281 -8.3071 -5.87962 6.26696 5.74478 -5.58401 7.64827 5.63043 8.54365
-0.00177 0.95544 -0.00049 175.95372 0 -4.5903 6.3143 5.46672 0.0499 -20.0628 3.32708 3.41283 20.35709 -71.27351 -70.24995 21.00555 73.68037 -31.76927 -2.30566 33.05702 62.65349 51.50045 16.53004 -101.26387 -30.17701 5.69848 -3.43652 4.74891 -1.94751 -7.35079 3.0769 -4.13058 -8.28898 -5.89002 6.26808 5.77302 -5.58021 7.64615 5.63091 8.54202
-0.00183 0.95541 -0.00058 175.93475 0 -4.58874 6.35866 5.45322 0.07481 -20.21488 3.2801 3.4523 20.34639 -71.26676 -70.29899 21.07716 73.6684 -31.67832 -2.31487 33.08158 62.69665 51.06234 16.70699 -101.18348 -30.16838 5.6806 -3.4412 4.74831 -1.95887 -7.34549 3.09248 -4.13214 -8.26369 -5.89926 6.26933 5.8087 -5.57679 7.64168 5.63019 8.54195
-0.00191 0.95538 -0.00067 175.91899 0 -4.587 6.40468 5.44005 0.09869 -20.36223 3.23446 3.48468 20.33141 -71.25508 -70.356 21.14537 73.66094 -31.58939 -2.32546 33.11161 62.75174 50.66788 16.87115 -101.05011 -30.15712 5.65676 -3.44804 4.74806 -1.96765 -7.33827 3.10731 -4.13428 -8.24303 -5.90853 6.27071 5.83852 -5.57347 7.63901 5.63025 8.54189
-0.00199 0.95535 -0.00075 175.89688 0 -4.58557 6.45075 5.42844 0.12611 -20.5141 3.18527 3.52286 20.26365 -71.26637 -70.46656 21.22559 73.60535 -31.50546 -2.33195 33.1413 62.83645 50.21922 17.05656 -100.93056 -30.16715 5.6288 -3.45447 4.74697 -1.97751 -7.33104 3.12129 -4.13571 -8.21681 -5.92027 6.27134 5.87876 -5.56847 7.6332 5.62915 8.53871
-0.00204 0.95531 -0.00085 175.88692 0 -4.58359 6.496 5.41348 0.14711 -20.65865 3.14387 3.55173 20.32088 -71.22668 -70.44523 21.28114 73.66076 -31.41466 -2.34733 33.17231 62.84346 49.85484 17.20276 -100.81151 -30.13442 5.613 -3.46033 4.74751 -1.98632 -7.3252 3.13746 -4.1384 -8.20029 -5.92626 6.27351 5.89913 -5.56749 7.63338 5.63031 8.54243
-0.00204 0.95523 -0.00099 175.91331 0 -4.57963 6.53816 5.38742 0.14918 -20.77859 3.12351 3.54679 20.65691 -71.0713 -70.15712 21.2632 73.95253 -31.25138 -2.38186 33.17609 62.69631 49.86248 17.22406 -100.64669 -29.95136 5.62921 -3.46871 4.7531 -1.99169 -7.31912 3.16018 -4.14492 -8.21362 -5.91884 6.28021 5.86197 -5.57481 7.65091 5.63718 8.56488
